<svg width="25" height="24" viewBox="0 0 25 24" fill="none" xmlns="http://www.w3.org/2000/svg">
<path d="M11.2558 14.9498L9.40581 16.7998C9.01581 17.1898 8.39581 17.1898 7.99581 16.8098C7.88581 16.6998 7.77581 16.5998 7.66581 16.4898C6.63581 15.4498 5.70581 14.3598 4.87581 13.2198C4.05581 12.0798 3.39581 10.9398 2.91581 9.80982C2.44581 8.66982 2.20581 7.57982 2.20581 6.53982C2.20581 5.85982 2.32581 5.20982 2.56581 4.60982C2.80581 3.99982 3.18581 3.43982 3.71581 2.93982C4.35581 2.30982 5.05581 1.99982 5.79581 1.99982C6.07581 1.99982 6.35581 2.05982 6.60581 2.17982C6.86581 2.29982 7.09581 2.47982 7.27581 2.73982L9.59581 6.00982C9.77581 6.25982 9.90581 6.48982 9.99581 6.70982C10.0858 6.91982 10.1358 7.12982 10.1358 7.31982C10.1358 7.55982 10.0658 7.79982 9.92581 8.02982C9.79581 8.25982 9.60581 8.49982 9.36581 8.73982L8.60581 9.52982C8.49581 9.63982 8.44581 9.76982 8.44581 9.92982C8.44581 10.0098 8.45581 10.0798 8.47581 10.1598C8.50581 10.2398 8.53581 10.2998 8.55581 10.3598C8.73581 10.6898 9.04581 11.1198 9.48581 11.6398C9.93581 12.1598 10.4158 12.6898 10.9358 13.2198C11.0358 13.3198 11.1458 13.4198 11.2458 13.5198C11.6458 13.9098 11.6558 14.5498 11.2558 14.9498Z" fill="#292D32"/>
<path d="M22.1758 18.3298C22.1758 18.6098 22.1258 18.8998 22.0258 19.1798C21.9958 19.2598 21.9658 19.3398 21.9258 19.4198C21.7558 19.7798 21.5358 20.1198 21.2458 20.4398C20.7558 20.9798 20.2158 21.3698 19.6058 21.6198C19.5958 21.6198 19.5858 21.6298 19.5758 21.6298C18.9858 21.8698 18.3458 21.9998 17.6558 21.9998C16.6358 21.9998 15.5458 21.7598 14.3958 21.2698C13.2458 20.7798 12.0958 20.1198 10.9558 19.2898C10.5658 18.9998 10.1758 18.7098 9.80579 18.3998L13.0758 15.1298C13.3558 15.3398 13.6058 15.4998 13.8158 15.6098C13.8658 15.6298 13.9258 15.6598 13.9958 15.6898C14.0758 15.7198 14.1558 15.7298 14.2458 15.7298C14.4158 15.7298 14.5458 15.6698 14.6558 15.5598L15.4158 14.8098C15.6658 14.5598 15.9058 14.3698 16.1358 14.2498C16.3658 14.1098 16.5958 14.0398 16.8458 14.0398C17.0358 14.0398 17.2358 14.0798 17.4558 14.1698C17.6758 14.2598 17.9058 14.3898 18.1558 14.5598L21.4658 16.9098C21.7258 17.0898 21.9058 17.2998 22.0158 17.5498C22.1158 17.7998 22.1758 18.0498 22.1758 18.3298Z" fill="#292D32"/>
</svg>
