<svg width="47" height="46" viewBox="0 0 47 46" fill="none" xmlns="http://www.w3.org/2000/svg">
<rect x="0.705811" y="-0.000183105" width="45.3333" height="45.3333" rx="22.6667" fill="#163A5F"/>
<g clip-path="url(#clip0_6_491)">
<path d="M23.3725 10.6665C16.7451 10.6665 11.3725 16.0391 11.3725 22.6665C11.3725 28.294 15.247 33.0163 20.4737 34.3132V26.3337H17.9993V22.6665H20.4737V21.0863C20.4737 17.002 22.3222 15.1089 26.3321 15.1089C27.0925 15.1089 28.4043 15.2582 28.9409 15.407V18.731C28.6577 18.7012 28.1657 18.6863 27.5547 18.6863C25.5872 18.6863 24.8269 19.4318 24.8269 21.3695V22.6665H28.7465L28.0731 26.3337H24.8269V34.5787C30.7688 33.8611 35.3729 28.8019 35.3729 22.6665C35.3725 16.0391 29.9998 10.6665 23.3725 10.6665Z" fill="white"/>
</g>
<defs>
<clipPath id="clip0_6_491">
<rect width="24" height="24" fill="white" transform="translate(11.3725 10.6665)"/>
</clipPath>
</defs>
</svg>
