<svg width="25" height="24" viewBox="0 0 25 24" fill="none" xmlns="http://www.w3.org/2000/svg">
<path d="M12.3724 22C17.8953 22 22.3724 17.5228 22.3724 12C22.3724 6.47715 17.8953 2 12.3724 2C6.84959 2 2.37244 6.47715 2.37244 12C2.37244 17.5228 6.84959 22 12.3724 22Z" stroke="#292D32" stroke-width="1.5" stroke-linecap="round" stroke-linejoin="round"/>
<path d="M8.37244 3H9.37244C7.42244 8.84 7.42244 15.16 9.37244 21H8.37244" stroke="#292D32" stroke-width="1.5" stroke-linecap="round" stroke-linejoin="round"/>
<path d="M15.3724 3C17.3224 8.84 17.3224 15.16 15.3724 21" stroke="#292D32" stroke-width="1.5" stroke-linecap="round" stroke-linejoin="round"/>
<path d="M3.37244 16V15C9.21244 16.95 15.5324 16.95 21.3724 15V16" stroke="#292D32" stroke-width="1.5" stroke-linecap="round" stroke-linejoin="round"/>
<path d="M3.37244 9.0001C9.21244 7.0501 15.5324 7.0501 21.3724 9.0001" stroke="#292D32" stroke-width="1.5" stroke-linecap="round" stroke-linejoin="round"/>
</svg>
