<svg width="47" height="46" viewBox="0 0 47 46" fill="none" xmlns="http://www.w3.org/2000/svg">
<rect x="0.705811" y="-0.000183105" width="45.3333" height="45.3333" rx="22.6667" fill="#163A5F"/>
<g clip-path="url(#clip0_6_495)">
<path d="M33.5959 10.6665H13.1443C12.1646 10.6665 11.3725 11.4399 11.3725 12.3962V32.9321C11.3725 33.8884 12.1646 34.6665 13.1443 34.6665H33.5959C34.5756 34.6665 35.3725 33.8884 35.3725 32.9368V12.3962C35.3725 11.4399 34.5756 10.6665 33.5959 10.6665ZM18.4928 31.1181H14.9303V19.6618H18.4928V31.1181ZM16.7115 18.1009C15.5678 18.1009 14.6443 17.1774 14.6443 16.0384C14.6443 14.8993 15.5678 13.9759 16.7115 13.9759C17.8506 13.9759 18.774 14.8993 18.774 16.0384C18.774 17.1728 17.8506 18.1009 16.7115 18.1009ZM31.824 31.1181H28.2662V25.5493C28.2662 24.2228 28.2428 22.5118 26.4146 22.5118C24.5631 22.5118 24.2818 23.9603 24.2818 25.4556V31.1181H20.7287V19.6618H24.1412V21.2274H24.1881C24.6615 20.3274 25.824 19.3759 27.5537 19.3759C31.1584 19.3759 31.824 21.7478 31.824 24.8321V31.1181Z" fill="white"/>
</g>
<defs>
<clipPath id="clip0_6_495">
<rect width="24" height="24" fill="white" transform="translate(11.3725 10.6665)"/>
</clipPath>
</defs>
</svg>
