<svg width="25" height="24" viewBox="0 0 25 24" fill="none" xmlns="http://www.w3.org/2000/svg">
<g clip-path="url(#clip0_6_668)">
<path d="M20.8258 8.44982C19.7758 3.82982 15.7458 1.74982 12.2058 1.74982C12.2058 1.74982 12.2058 1.74982 12.1958 1.74982C8.66578 1.74982 4.62578 3.81982 3.57578 8.43982C2.40578 13.5998 5.56578 17.9698 8.42578 20.7198C9.48578 21.7398 10.8458 22.2498 12.2058 22.2498C13.5658 22.2498 14.9258 21.7398 15.9758 20.7198C18.8358 17.9698 21.9958 13.6098 20.8258 8.44982ZM12.2058 13.4598C10.4658 13.4598 9.05578 12.0498 9.05578 10.3098C9.05578 8.56982 10.4658 7.15982 12.2058 7.15982C13.9458 7.15982 15.3558 8.56982 15.3558 10.3098C15.3558 12.0498 13.9458 13.4598 12.2058 13.4598Z" fill="#292D32"/>
</g>
<defs>
<clipPath id="clip0_6_668">
<rect width="24" height="24" fill="white" transform="translate(0.205811 -0.000183105)"/>
</clipPath>
</defs>
</svg>
