<svg width="25" height="24" viewBox="0 0 25 24" fill="none" xmlns="http://www.w3.org/2000/svg">
<path d="M17.2058 3.49982H7.20581C4.20581 3.49982 2.20581 4.99982 2.20581 8.49982V15.4998C2.20581 18.9998 4.20581 20.4998 7.20581 20.4998H17.2058C20.2058 20.4998 22.2058 18.9998 22.2058 15.4998V8.49982C22.2058 4.99982 20.2058 3.49982 17.2058 3.49982ZM17.6758 9.58982L14.5458 12.0898C13.8858 12.6198 13.0458 12.8798 12.2058 12.8798C11.3658 12.8798 10.5158 12.6198 9.86581 12.0898L6.73581 9.58982C6.41581 9.32982 6.36581 8.84982 6.61581 8.52982C6.87581 8.20982 7.34581 8.14982 7.66581 8.40982L10.7958 10.9098C11.5558 11.5198 12.8458 11.5198 13.6058 10.9098L16.7358 8.40982C17.0558 8.14982 17.5358 8.19982 17.7858 8.52982C18.0458 8.84982 17.9958 9.32982 17.6758 9.58982Z" fill="#292D32"/>
</svg>
